<svg width="524" height="431" viewBox="0 0 524 431" fill="none" xmlns="http://www.w3.org/2000/svg">
<g clip-path="url(#clip0_2_5)">
<path d="M355.571 422.115C354.434 422.114 353.316 421.818 352.327 421.256L164.735 315.158C163.21 314.293 162.091 312.858 161.622 311.169C161.153 309.479 161.373 307.672 162.234 306.145L309.986 44.7033C310.413 43.9471 310.985 43.2824 311.669 42.7473C312.353 42.2123 313.136 41.8173 313.972 41.5849C314.809 41.3525 315.683 41.2873 316.545 41.393C317.407 41.4987 318.239 41.7733 318.995 42.201L506.586 148.299C508.111 149.164 509.231 150.599 509.7 152.288C510.169 153.978 509.949 155.784 509.089 157.312L361.336 418.753C360.91 419.511 360.339 420.176 359.655 420.712C358.97 421.247 358.187 421.641 357.349 421.872C356.77 422.033 356.172 422.115 355.571 422.115Z" fill="#E6E6E6"/>
<path d="M304.754 54.946L304 56.2799L502.258 168.411L503.012 167.077L304.754 54.946Z" fill="white"/>
<path d="M291.185 78.9559L290.431 80.2898L488.689 192.421L489.443 191.087L291.185 78.9559Z" fill="white"/>
<path d="M277.616 102.966L276.862 104.3L475.12 216.431L475.874 215.097L277.616 102.966Z" fill="white"/>
<path d="M264.047 126.976L263.293 128.31L461.551 240.441L462.305 239.107L264.047 126.976Z" fill="white"/>
<path d="M250.478 150.986L249.724 152.32L447.982 264.451L448.736 263.117L250.478 150.986Z" fill="white"/>
<path d="M236.909 174.996L236.155 176.329L434.413 288.461L435.167 287.127L236.909 174.996Z" fill="white"/>
<path d="M223.339 199.005L222.586 200.339L420.844 312.471L421.598 311.137L223.339 199.005Z" fill="white"/>
<path d="M209.77 223.015L209.017 224.349L407.275 336.481L408.029 335.147L209.77 223.015Z" fill="white"/>
<path d="M196.201 247.025L195.447 248.359L393.706 360.491L394.46 359.157L196.201 247.025Z" fill="white"/>
<path d="M182.632 271.035L181.878 272.369L380.137 384.5L380.891 383.167L182.632 271.035Z" fill="white"/>
<path d="M169.063 295.045L168.309 296.379L366.568 408.51L367.322 407.177L169.063 295.045Z" fill="white"/>
<path d="M338.121 382.351C336.983 382.35 335.865 382.054 334.876 381.492L147.284 275.393C145.759 274.529 144.64 273.094 144.171 271.404C143.702 269.715 143.922 267.908 144.783 266.38L292.535 4.93899C292.962 4.18275 293.534 3.51811 294.218 2.98304C294.902 2.44798 295.685 2.05297 296.522 1.82059C297.358 1.58821 298.232 1.52301 299.094 1.62872C299.956 1.73443 300.789 2.00898 301.544 2.43667L489.135 108.535C490.66 109.4 491.78 110.834 492.249 112.524C492.718 114.213 492.498 116.02 491.638 117.548L343.885 378.989C343.46 379.746 342.888 380.412 342.204 380.948C341.52 381.483 340.736 381.877 339.899 382.108C339.32 382.269 338.721 382.351 338.121 382.351Z" fill="#F2F2F2"/>
<path d="M287.303 15.1817L286.549 16.5156L484.808 128.647L485.561 127.313L287.303 15.1817Z" fill="white"/>
<path d="M273.734 39.1916L272.98 40.5255L471.239 152.657L471.992 151.323L273.734 39.1916Z" fill="white"/>
<path d="M260.165 63.2015L259.411 64.5354L457.67 176.667L458.423 175.333L260.165 63.2015Z" fill="white"/>
<path d="M246.596 87.2114L245.842 88.5453L444.1 200.677L444.854 199.343L246.596 87.2114Z" fill="white"/>
<path d="M233.027 111.221L232.273 112.555L430.531 224.687L431.285 223.353L233.027 111.221Z" fill="white"/>
<path d="M219.458 135.231L218.704 136.565L416.962 248.697L417.716 247.363L219.458 135.231Z" fill="white"/>
<path d="M205.889 159.241L205.135 160.575L403.393 272.706L404.147 271.373L205.889 159.241Z" fill="white"/>
<path d="M192.32 183.251L191.566 184.585L389.824 296.716L390.578 295.382L192.32 183.251Z" fill="white"/>
<path d="M178.751 207.261L177.997 208.595L376.255 320.726L377.009 319.392L178.751 207.261Z" fill="white"/>
<path d="M165.181 231.271L164.428 232.605L362.686 344.736L363.44 343.402L165.181 231.271Z" fill="white"/>
<path d="M151.612 255.281L150.859 256.615L349.117 368.746L349.871 367.412L151.612 255.281Z" fill="white"/>
<path d="M319.427 0H19.6258V417.04H319.427C320.504 417.04 321.536 416.612 322.298 415.851C323.059 415.089 323.487 414.056 323.487 412.978V4.06208C323.487 2.98475 323.059 1.95157 322.298 1.18979C321.536 0.428005 320.504 2.31491e-05 319.427 0ZM36.5446 405.531C35.0722 405.531 33.633 405.094 32.4088 404.276C31.1846 403.458 30.2304 402.295 29.667 400.934C29.1035 399.573 28.9561 398.076 29.2433 396.631C29.5306 395.187 30.2396 393.86 31.2807 392.818C32.3218 391.777 33.6482 391.067 35.0923 390.78C36.5363 390.493 38.0331 390.64 39.3934 391.204C40.7536 391.767 41.9163 392.722 42.7343 393.947C43.5523 395.171 43.9888 396.611 43.9888 398.084C43.9889 399.062 43.7963 400.03 43.4222 400.934C43.0481 401.837 42.4997 402.658 41.8085 403.35C41.1172 404.041 40.2966 404.59 39.3934 404.964C38.4902 405.339 37.5222 405.531 36.5446 405.531ZM36.5446 367.618C35.0722 367.618 33.633 367.182 32.4088 366.363C31.1846 365.545 30.2304 364.382 29.667 363.021C29.1035 361.66 28.9561 360.163 29.2434 358.718C29.5306 357.274 30.2396 355.947 31.2807 354.905C32.3218 353.864 33.6482 353.155 35.0923 352.867C36.5363 352.58 38.0331 352.727 39.3934 353.291C40.7536 353.855 41.9163 354.809 42.7343 356.034C43.5523 357.258 43.9888 358.698 43.9888 360.171C43.9889 361.149 43.7963 362.118 43.4222 363.021C43.0481 363.925 42.4998 364.746 41.8085 365.437C41.1172 366.129 40.2966 366.677 39.3934 367.052C38.4902 367.426 37.5222 367.618 36.5446 367.618ZM36.5446 329.706C35.0722 329.706 33.633 329.269 32.4088 328.451C31.1846 327.632 30.2304 326.469 29.667 325.108C29.1035 323.748 28.9561 322.25 29.2434 320.806C29.5306 319.361 30.2396 318.034 31.2807 316.993C32.3218 315.951 33.6482 315.242 35.0923 314.954C36.5363 314.667 38.0331 314.815 39.3934 315.378C40.7536 315.942 41.9163 316.896 42.7343 318.121C43.5523 319.346 43.9888 320.786 43.9888 322.258C43.9889 323.236 43.7963 324.205 43.4222 325.108C43.0481 326.012 42.4997 326.833 41.8085 327.524C41.1172 328.216 40.2966 328.764 39.3934 329.139C38.4902 329.513 37.5222 329.706 36.5446 329.706ZM36.5446 291.793C35.0722 291.793 33.633 291.356 32.4088 290.538C31.1846 289.719 30.2304 288.556 29.667 287.196C29.1035 285.835 28.9561 284.337 29.2434 282.893C29.5306 281.448 30.2396 280.121 31.2807 279.08C32.3218 278.038 33.6482 277.329 35.0923 277.042C36.5363 276.754 38.0331 276.902 39.3934 277.465C40.7536 278.029 41.9163 278.984 42.7343 280.208C43.5523 281.433 43.9888 282.873 43.9888 284.346C43.9889 285.324 43.7963 286.292 43.4222 287.196C43.0481 288.099 42.4997 288.92 41.8085 289.612C41.1172 290.303 40.2966 290.852 39.3934 291.226C38.4902 291.6 37.5222 291.793 36.5446 291.793ZM36.5446 253.88C35.0722 253.88 33.633 253.443 32.4088 252.625C31.1846 251.807 30.2304 250.644 29.667 249.283C29.1035 247.922 28.9561 246.425 29.2434 244.98C29.5306 243.535 30.2396 242.209 31.2807 241.167C32.3218 240.126 33.6482 239.416 35.0923 239.129C36.5363 238.842 38.0331 238.989 39.3934 239.553C40.7536 240.116 41.9163 241.071 42.7343 242.296C43.5523 243.52 43.9888 244.96 43.9888 246.433C43.9889 247.411 43.7963 248.379 43.4222 249.283C43.0481 250.186 42.4997 251.007 41.8085 251.699C41.1172 252.39 40.2966 252.939 39.3934 253.313C38.4902 253.687 37.5222 253.88 36.5446 253.88ZM36.5446 215.967C35.0722 215.967 33.633 215.531 32.4088 214.712C31.1846 213.894 30.2304 212.731 29.667 211.37C29.1035 210.009 28.9561 208.512 29.2434 207.067C29.5306 205.623 30.2396 204.296 31.2807 203.254C32.3218 202.213 33.6482 201.503 35.0923 201.216C36.5363 200.929 38.0331 201.076 39.3934 201.64C40.7536 202.204 41.9163 203.158 42.7343 204.383C43.5523 205.607 43.9888 207.047 43.9888 208.52C43.9889 209.498 43.7963 210.467 43.4222 211.37C43.0481 212.274 42.4997 213.095 41.8085 213.786C41.1172 214.478 40.2966 215.026 39.3934 215.4C38.4902 215.775 37.5222 215.967 36.5446 215.967ZM36.5446 178.055C35.0722 178.055 33.633 177.618 32.4088 176.799C31.1846 175.981 30.2304 174.818 29.667 173.457C29.1035 172.097 28.9561 170.599 29.2434 169.155C29.5306 167.71 30.2396 166.383 31.2807 165.341C32.3218 164.3 33.6482 163.591 35.0923 163.303C36.5363 163.016 38.0331 163.164 39.3934 163.727C40.7536 164.291 41.9163 165.245 42.7343 166.47C43.5523 167.695 43.9888 169.135 43.9888 170.607C43.9889 171.585 43.7963 172.554 43.4222 173.457C43.0481 174.361 42.4997 175.182 41.8085 175.873C41.1172 176.565 40.2966 177.113 39.3934 177.488C38.4902 177.862 37.5222 178.055 36.5446 178.055ZM36.5446 140.142C35.0722 140.142 33.633 139.705 32.4088 138.887C31.1846 138.068 30.2304 136.905 29.667 135.545C29.1035 134.184 28.9561 132.686 29.2434 131.242C29.5306 129.797 30.2396 128.47 31.2807 127.429C32.3218 126.387 33.6482 125.678 35.0923 125.391C36.5363 125.103 38.0331 125.251 39.3934 125.814C40.7536 126.378 41.9163 127.333 42.7343 128.557C43.5523 129.782 43.9888 131.222 43.9888 132.695C43.9889 133.673 43.7963 134.641 43.4222 135.545C43.0481 136.448 42.4997 137.269 41.8085 137.961C41.1172 138.652 40.2966 139.201 39.3934 139.575C38.4902 139.949 37.5222 140.142 36.5446 140.142ZM36.5446 102.229C35.0722 102.229 33.633 101.792 32.4088 100.974C31.1846 100.156 30.2304 98.9926 29.667 97.6318C29.1035 96.271 28.9561 94.7736 29.2434 93.329C29.5306 91.8844 30.2396 90.5575 31.2807 89.516C32.3218 88.4745 33.6482 87.7652 35.0923 87.4779C36.5363 87.1905 38.0331 87.338 39.3934 87.9016C40.7536 88.4653 41.9163 89.4198 42.7343 90.6445C43.5523 91.8692 43.9888 93.309 43.9888 94.7819C43.9889 95.7599 43.7963 96.7283 43.4222 97.6318C43.0481 98.5353 42.4997 99.3563 41.8085 100.048C41.1172 100.739 40.2966 101.288 39.3934 101.662C38.4902 102.036 37.5222 102.229 36.5446 102.229ZM36.5446 64.3163C35.0722 64.3163 33.633 63.8795 32.4088 63.0612C31.1846 62.2429 30.2304 61.0798 29.667 59.719C29.1035 58.3583 28.9561 56.8609 29.2433 55.4163C29.5306 53.9717 30.2396 52.6447 31.2807 51.6032C32.3218 50.5617 33.6482 49.8524 35.0923 49.5651C36.5363 49.2777 38.0331 49.4252 39.3934 49.9888C40.7536 50.5525 41.9163 51.507 42.7343 52.7317C43.5523 53.9564 43.9888 55.3962 43.9888 56.8691C43.9889 57.8471 43.7963 58.8155 43.4222 59.719C43.0481 60.6226 42.4997 61.4435 41.8085 62.1351C41.1172 62.8266 40.2966 63.3752 39.3934 63.7494C38.4902 64.1237 37.5222 64.3163 36.5446 64.3163ZM36.5446 26.4035C35.0722 26.4035 33.633 25.9668 32.4088 25.1485C31.1846 24.3302 30.2304 23.1671 29.667 21.8063C29.1035 20.4455 28.9561 18.9481 29.2433 17.5035C29.5306 16.0589 30.2396 14.732 31.2807 13.6905C32.3218 12.649 33.6482 11.9397 35.0923 11.6523C36.5363 11.365 38.0331 11.5124 39.3934 12.0761C40.7536 12.6398 41.9163 13.5943 42.7343 14.819C43.5523 16.0436 43.9888 17.4835 43.9888 18.9564C43.9889 19.9344 43.7963 20.9027 43.4222 21.8063C43.0481 22.7098 42.4997 23.5308 41.8085 24.2223C41.1172 24.9139 40.2966 25.4624 39.3934 25.8367C38.4902 26.2109 37.5222 26.4035 36.5446 26.4035Z" fill="#626E9D"/>
<path d="M19.6258 23.0185C17.617 23.0185 0 22.9236 0 19.6334C0 16.3432 17.617 16.2483 19.6258 16.2483V17.6023C9.24956 17.6023 2.52145 18.7643 1.43793 19.6334C2.52145 20.5025 9.24956 21.6644 19.6258 21.6644C29.9789 21.6644 36.7001 20.5074 37.8062 19.6394C37.2798 19.2675 35.1294 18.488 29.3614 17.9891L29.4779 16.6404C39.2516 17.4853 39.2516 19.046 39.2516 19.6334C39.2516 22.9236 21.6346 23.0185 19.6258 23.0185Z" fill="#9F9FAA"/>
<path d="M19.6258 60.2542C17.617 60.2542 0 60.1593 0 56.8691C0 53.5789 17.617 53.4841 19.6258 53.4841V54.8381C9.24956 54.8381 2.52145 56.0001 1.43793 56.8692C2.52145 57.7382 9.24956 58.9002 19.6258 58.9002C29.9789 58.9002 36.7001 57.7432 37.8062 56.8751C37.2798 56.5032 35.1294 55.7238 29.3614 55.2249L29.4779 53.8762C39.2516 54.7211 39.2516 56.2818 39.2516 56.8692C39.2516 60.1593 21.6346 60.2542 19.6258 60.2542Z" fill="#9F9FAA"/>
<path d="M19.6258 98.167C17.617 98.167 0 98.0721 0 94.7819C0 91.4917 17.617 91.3968 19.6258 91.3968V92.7508C9.24956 92.7508 2.52145 93.9128 1.43793 94.7819C2.52145 95.651 9.24956 96.8129 19.6258 96.8129C29.9789 96.8129 36.7001 95.6559 37.8062 94.7879C37.2798 94.416 35.1294 93.6365 29.3614 93.1376L29.4779 91.7889C39.2516 92.6339 39.2516 94.1945 39.2516 94.7819C39.2516 98.0721 21.6346 98.167 19.6258 98.167Z" fill="#9F9FAA"/>
<path d="M19.6258 136.08C17.617 136.08 0 135.985 0 132.695C0 129.404 17.617 129.31 19.6258 129.31V130.664C9.24956 130.664 2.52145 131.826 1.43793 132.695C2.52145 133.564 9.24956 134.726 19.6258 134.726C29.9789 134.726 36.7001 133.569 37.8062 132.701C37.2798 132.329 35.1294 131.549 29.3614 131.05L29.4779 129.702C39.2516 130.547 39.2516 132.107 39.2516 132.695C39.2516 135.985 21.6346 136.08 19.6258 136.08Z" fill="#9F9FAA"/>
<path d="M19.6258 173.992C17.617 173.992 0 173.898 0 170.607C0 167.317 17.617 167.222 19.6258 167.222V168.576C9.24956 168.576 2.52145 169.738 1.43793 170.607C2.52145 171.476 9.24956 172.638 19.6258 172.638C29.9789 172.638 36.7001 171.481 37.8062 170.613C37.2798 170.241 35.1294 169.462 29.3614 168.963L29.4779 167.614C39.2516 168.459 39.2516 170.02 39.2516 170.607C39.2516 173.898 21.6346 173.992 19.6258 173.992Z" fill="#9F9FAA"/>
<path d="M19.6258 211.905C17.617 211.905 0 211.81 0 208.52C0 205.23 17.617 205.135 19.6258 205.135V206.489C9.24956 206.489 2.52145 207.651 1.43793 208.52C2.52145 209.389 9.24956 210.551 19.6258 210.551C29.9789 210.551 36.7001 209.394 37.8062 208.526C37.2798 208.154 35.1294 207.375 29.3614 206.876L29.4779 205.527C39.2516 206.372 39.2516 207.933 39.2516 208.52C39.2516 211.81 21.6346 211.905 19.6258 211.905Z" fill="#9F9FAA"/>
<path d="M19.6258 249.818C17.617 249.818 0 249.723 0 246.433C0 243.143 17.617 243.048 19.6258 243.048V244.402C9.24956 244.402 2.52145 245.564 1.43793 246.433C2.52145 247.302 9.24956 248.464 19.6258 248.464C29.9789 248.464 36.7001 247.307 37.8062 246.439C37.2798 246.067 35.1294 245.288 29.3614 244.789L29.4779 243.44C39.2516 244.285 39.2516 245.846 39.2516 246.433C39.2516 249.723 21.6346 249.818 19.6258 249.818Z" fill="#9F9FAA"/>
<path d="M19.6258 287.731C17.617 287.731 0 287.636 0 284.346C0 281.056 17.617 280.961 19.6258 280.961V282.315C9.24956 282.315 2.52145 283.477 1.43793 284.346C2.52145 285.215 9.24956 286.377 19.6258 286.377C29.9789 286.377 36.7001 285.22 37.8062 284.352C37.2798 283.98 35.1294 283.2 29.3614 282.701L29.4779 281.353C39.2516 282.198 39.2516 283.758 39.2516 284.346C39.2516 287.636 21.6346 287.731 19.6258 287.731Z" fill="#9F9FAA"/>
<path d="M19.6258 325.644C17.617 325.644 0 325.549 0 322.259C0 318.968 17.617 318.873 19.6258 318.873V320.227C9.24956 320.227 2.52145 321.389 1.43793 322.259C2.52145 323.128 9.24956 324.29 19.6258 324.29C29.9789 324.29 36.7001 323.132 37.8062 322.264C37.2798 321.893 35.1294 321.113 29.3614 320.614L29.4779 319.265C39.2516 320.11 39.2516 321.671 39.2516 322.259C39.2516 325.549 21.6346 325.644 19.6258 325.644Z" fill="#9F9FAA"/>
<path d="M19.6258 363.556C17.617 363.556 0 363.461 0 360.171C0 356.881 17.617 356.786 19.6258 356.786V358.14C9.24956 358.14 2.52145 359.302 1.43793 360.171C2.52145 361.04 9.24956 362.202 19.6258 362.202C29.9789 362.202 36.7001 361.045 37.8062 360.177C37.2798 359.805 35.1294 359.026 29.3614 358.527L29.4779 357.178C39.2516 358.023 39.2516 359.584 39.2516 360.171C39.2516 363.461 21.6346 363.556 19.6258 363.556Z" fill="#9F9FAA"/>
<path d="M19.6258 401.469C17.617 401.469 0 401.374 0 398.084C0 394.794 17.617 394.699 19.6258 394.699V396.053C9.24956 396.053 2.52145 397.215 1.43793 398.084C2.52145 398.953 9.24956 400.115 19.6258 400.115C29.9789 400.115 36.7001 398.958 37.8062 398.09C37.2798 397.718 35.1294 396.939 29.3614 396.44L29.4779 395.091C39.2516 395.936 39.2516 397.497 39.2516 398.084C39.2516 401.374 21.6346 401.469 19.6258 401.469Z" fill="#9F9FAA"/>
<path d="M258.181 159.437H109.295C108.129 159.435 107.011 158.971 106.186 158.146C105.362 157.321 104.898 156.203 104.896 155.036V96.8129C104.898 95.6463 105.362 94.5277 106.186 93.7027C107.011 92.8777 108.129 92.4137 109.295 92.4123H258.181C259.347 92.4137 260.465 92.8777 261.29 93.7027C262.114 94.5277 262.578 95.6462 262.58 96.8129V155.036C262.578 156.203 262.114 157.321 261.29 158.146C260.465 158.971 259.347 159.435 258.181 159.437Z" fill="white"/>
<path d="M202.687 112.384H164.789C163.892 112.384 163.031 112.028 162.396 111.393C161.762 110.758 161.405 109.897 161.405 108.999C161.405 108.101 161.762 107.24 162.396 106.606C163.031 105.971 163.892 105.614 164.789 105.614H202.687C203.585 105.614 204.445 105.971 205.08 106.606C205.714 107.24 206.071 108.101 206.071 108.999C206.071 109.897 205.714 110.758 205.08 111.393C204.445 112.028 203.585 112.384 202.687 112.384Z" fill="#FF9F8C"/>
<path d="M223.666 129.31H143.81C142.912 129.31 142.052 128.953 141.417 128.318C140.782 127.683 140.426 126.822 140.426 125.925C140.426 125.027 140.782 124.166 141.417 123.531C142.052 122.896 142.912 122.539 143.81 122.539H223.666C224.564 122.539 225.424 122.896 226.059 123.531C226.694 124.166 227.05 125.027 227.05 125.925C227.05 126.822 226.694 127.683 226.059 128.318C225.424 128.953 224.564 129.31 223.666 129.31Z" fill="#FF9F8C"/>
<path d="M223.666 146.235H143.81C142.912 146.235 142.052 145.878 141.417 145.243C140.782 144.609 140.426 143.748 140.426 142.85C140.426 141.952 140.782 141.091 141.417 140.456C142.052 139.821 142.912 139.465 143.81 139.465H223.666C224.564 139.465 225.424 139.821 226.059 140.456C226.694 141.091 227.05 141.952 227.05 142.85C227.05 143.748 226.694 144.609 226.059 145.243C225.424 145.878 224.564 146.235 223.666 146.235Z" fill="#FF9F8C"/>
</g>
<defs>
<clipPath id="clip0_2_5">
<rect width="770" height="445" fill="white"/>
</clipPath>
</defs>
</svg>
